# Blender v2.80 (sub 74) OBJ File: ''
# www.blender.org
mtllib bomb.mtl
o Icosphere.000
v 0.000000 -1.000000 -0.000000
v 0.425323 -0.850654 0.309011
v -0.162456 -0.850654 0.499995
v 0.723607 -0.447220 0.525725
v 0.850648 -0.525736 -0.000000
v -0.525730 -0.850652 -0.000000
v -0.162456 -0.850654 -0.499995
v 0.425323 -0.850654 -0.309011
v 0.951058 -0.000000 0.309013
v -0.276388 -0.447220 0.850649
v 0.262869 -0.525738 0.809012
v 0.000000 -0.000000 1.000000
v -0.894426 -0.447216 -0.000000
v -0.688189 -0.525736 0.499997
v -0.951058 -0.000000 0.309013
v -0.276388 -0.447220 -0.850649
v -0.688189 -0.525736 -0.499997
v -0.587786 0.000000 -0.809017
v 0.723607 -0.447220 -0.525725
v 0.262869 -0.525738 -0.809012
v 0.587786 0.000000 -0.809017
v 0.587786 -0.000000 0.809017
v -0.587786 -0.000000 0.809017
v -0.951058 0.000000 -0.309013
v 0.000000 0.000000 -1.000000
v 0.951058 0.000000 -0.309013
v 0.276388 0.447220 0.850649
v 0.688189 0.525736 0.499997
v 0.162456 0.850654 0.499995
v -0.723607 0.447220 0.525725
v -0.262869 0.525738 0.809012
v -0.425323 0.850654 0.309011
v -0.723607 0.447220 -0.525725
v -0.850648 0.525736 0.000000
v -0.425323 0.850654 -0.309011
v 0.276388 0.447220 -0.850649
v -0.262869 0.525738 -0.809012
v 0.162456 0.850654 -0.499995
v 0.894426 0.447216 0.000000
v 0.688189 0.525736 -0.499997
v 0.525730 0.850652 0.000000
v 0.000000 1.000000 0.000000
vt 0.577468 0.005139
vt 0.547115 0.057712
vt 0.607821 0.057712
vt 0.516763 0.110285
vt 0.486411 0.057712
vt 0.456058 0.110285
vt 0.091826 0.005139
vt 0.061473 0.057712
vt 0.122178 0.057712
vt 0.213236 0.005139
vt 0.182884 0.057712
vt 0.243589 0.057712
vt 0.334647 0.005139
vt 0.304294 0.057712
vt 0.365000 0.057712
vt 0.486411 0.162858
vt 0.638174 0.110285
vt 0.577468 0.110285
vt 0.607821 0.162858
vt 0.152531 0.110285
vt 0.091826 0.110285
vt 0.122178 0.162858
vt 0.273942 0.110285
vt 0.213236 0.110285
vt 0.243589 0.162858
vt 0.395352 0.110285
vt 0.334647 0.110285
vt 0.365000 0.162858
vt 0.547115 0.162858
vt 0.668527 0.162858
vt 0.182884 0.162858
vt 0.304294 0.162858
vt 0.425705 0.162858
vt 0.577468 0.215430
vt 0.516763 0.215430
vt 0.547115 0.268003
vt 0.698880 0.215430
vt 0.638174 0.215430
vt 0.668527 0.268003
vt 0.213236 0.215430
vt 0.152531 0.215430
vt 0.182884 0.268003
vt 0.334647 0.215430
vt 0.273942 0.215430
vt 0.304294 0.268003
vt 0.456058 0.215430
vt 0.395352 0.215430
vt 0.425705 0.268003
vt 0.365000 0.268003
vt 0.395352 0.320576
vt 0.243589 0.268003
vt 0.273942 0.320576
vt 0.122178 0.268003
vt 0.152531 0.320576
vt 0.091826 0.215430
vt 0.607821 0.268003
vt 0.638174 0.320576
vt 0.486411 0.268003
vt 0.516763 0.320576
vt 0.061473 0.162858
vt 0.031120 0.110285
vt 0.425705 0.057712
vt 0.456058 0.005139
vn 0.1024 -0.9435 0.3151
vn 0.7002 -0.6617 0.2680
vn -0.2680 -0.9435 0.1947
vn -0.2680 -0.9435 -0.1947
vn 0.1024 -0.9435 -0.3151
vn 0.9050 -0.3304 0.2680
vn 0.0247 -0.3304 0.9435
vn -0.8897 -0.3304 0.3151
vn -0.5746 -0.3304 -0.7488
vn 0.5346 -0.3304 -0.7779
vn 0.8026 -0.1256 0.5831
vn -0.3066 -0.1256 0.9435
vn -0.9921 -0.1256 0.0000
vn -0.3066 -0.1256 -0.9435
vn 0.8026 -0.1256 -0.5831
vn 0.4089 0.6617 0.6284
vn -0.4713 0.6617 0.5831
vn -0.7002 0.6617 -0.2680
vn 0.0385 0.6617 -0.7488
vn 0.7240 0.6617 -0.1947
vn 0.2680 0.9435 -0.1947
vn 0.4911 0.7947 -0.3568
vn 0.4089 0.6617 -0.6284
vn -0.1024 0.9435 -0.3151
vn -0.1876 0.7947 -0.5773
vn -0.4713 0.6617 -0.5831
vn -0.3313 0.9435 0.0000
vn -0.6071 0.7947 0.0000
vn -0.7002 0.6617 0.2680
vn -0.1024 0.9435 0.3151
vn -0.1876 0.7947 0.5773
vn 0.0385 0.6617 0.7488
vn 0.2680 0.9435 0.1947
vn 0.4911 0.7947 0.3568
vn 0.7240 0.6617 0.1947
vn 0.8897 0.3304 -0.3151
vn 0.7947 0.1876 -0.5773
vn 0.5746 0.3304 -0.7488
vn -0.0247 0.3304 -0.9435
vn -0.3035 0.1876 -0.9342
vn -0.5346 0.3304 -0.7779
vn -0.9050 0.3304 -0.2680
vn -0.9822 0.1876 0.0000
vn -0.9050 0.3304 0.2680
vn -0.5346 0.3304 0.7779
vn -0.3035 0.1876 0.9342
vn -0.0247 0.3304 0.9435
vn 0.5746 0.3304 0.7488
vn 0.7947 0.1876 0.5773
vn 0.8897 0.3304 0.3151
vn 0.3066 0.1256 -0.9435
vn 0.3035 -0.1876 -0.9342
vn 0.0247 -0.3304 -0.9435
vn -0.8026 0.1256 -0.5831
vn -0.7947 -0.1876 -0.5773
vn -0.8897 -0.3304 -0.3151
vn -0.8026 0.1256 0.5831
vn -0.7947 -0.1876 0.5773
vn -0.5746 -0.3304 0.7488
vn 0.3066 0.1256 0.9435
vn 0.3035 -0.1876 0.9342
vn 0.5346 -0.3304 0.7779
vn 0.9921 0.1256 0.0000
vn 0.9822 -0.1876 0.0000
vn 0.9050 -0.3304 -0.2680
vn 0.4713 -0.6617 -0.5831
vn 0.1876 -0.7947 -0.5773
vn -0.0385 -0.6617 -0.7488
vn -0.4089 -0.6617 -0.6284
vn -0.4911 -0.7947 -0.3568
vn -0.7240 -0.6617 -0.1947
vn -0.7240 -0.6617 0.1947
vn -0.4911 -0.7947 0.3568
vn -0.4089 -0.6617 0.6284
vn 0.7002 -0.6617 -0.2680
vn 0.6071 -0.7947 0.0000
vn 0.3313 -0.9435 0.0000
vn -0.0385 -0.6617 0.7488
vn 0.1876 -0.7947 0.5773
vn 0.4713 -0.6617 0.5831
usemtl None.001
s 1
f 1/1/1 2/2/1 3/3/1
f 4/4/2 2/5/2 5/6/2
f 1/7/3 3/8/3 6/9/3
f 1/10/4 6/11/4 7/12/4
f 1/13/5 7/14/5 8/15/5
f 4/4/6 5/6/6 9/16/6
f 10/17/7 11/18/7 12/19/7
f 13/20/8 14/21/8 15/22/8
f 16/23/9 17/24/9 18/25/9
f 19/26/10 20/27/10 21/28/10
f 4/4/11 9/16/11 22/29/11
f 10/17/12 12/19/12 23/30/12
f 13/20/13 15/22/13 24/31/13
f 16/23/14 18/25/14 25/32/14
f 19/26/15 21/28/15 26/33/15
f 27/34/16 28/35/16 29/36/16
f 30/37/17 31/38/17 32/39/17
f 33/40/18 34/41/18 35/42/18
f 36/43/19 37/44/19 38/45/19
f 39/46/20 40/47/20 41/48/20
f 41/48/21 38/49/21 42/50/21
f 41/48/22 40/47/22 38/49/22
f 40/47/23 36/43/23 38/49/23
f 38/45/24 35/51/24 42/52/24
f 38/45/25 37/44/25 35/51/25
f 37/44/26 33/40/26 35/51/26
f 35/42/27 32/53/27 42/54/27
f 35/42/28 34/41/28 32/53/28
f 34/41/29 30/55/29 32/53/29
f 32/39/30 29/56/30 42/57/30
f 32/39/31 31/38/31 29/56/31
f 31/38/32 27/34/32 29/56/32
f 29/36/33 41/58/33 42/59/33
f 29/36/34 28/35/34 41/58/34
f 28/35/35 39/46/35 41/58/35
f 26/33/36 40/47/36 39/46/36
f 26/33/37 21/28/37 40/47/37
f 21/28/38 36/43/38 40/47/38
f 25/32/39 37/44/39 36/43/39
f 25/32/40 18/25/40 37/44/40
f 18/25/41 33/40/41 37/44/41
f 24/31/42 34/41/42 33/40/42
f 24/31/43 15/22/43 34/41/43
f 15/22/44 30/55/44 34/41/44
f 23/30/45 31/38/45 30/37/45
f 23/30/46 12/19/46 31/38/46
f 12/19/47 27/34/47 31/38/47
f 22/29/48 28/35/48 27/34/48
f 22/29/49 9/16/49 28/35/49
f 9/16/50 39/46/50 28/35/50
f 21/28/51 25/32/51 36/43/51
f 21/28/52 20/27/52 25/32/52
f 20/27/53 16/23/53 25/32/53
f 18/25/54 24/31/54 33/40/54
f 18/25/55 17/24/55 24/31/55
f 17/24/56 13/20/56 24/31/56
f 15/22/57 23/60/57 30/55/57
f 15/22/58 14/21/58 23/60/58
f 14/21/59 10/61/59 23/60/59
f 12/19/60 22/29/60 27/34/60
f 12/19/61 11/18/61 22/29/61
f 11/18/62 4/4/62 22/29/62
f 9/16/63 26/33/63 39/46/63
f 9/16/64 5/6/64 26/33/64
f 5/6/65 19/26/65 26/33/65
f 8/15/66 20/27/66 19/26/66
f 8/15/67 7/14/67 20/27/67
f 7/14/68 16/23/68 20/27/68
f 7/12/69 17/24/69 16/23/69
f 7/12/70 6/11/70 17/24/70
f 6/11/71 13/20/71 17/24/71
f 6/9/72 14/21/72 13/20/72
f 6/9/73 3/8/73 14/21/73
f 3/8/74 10/61/74 14/21/74
f 5/6/75 8/62/75 19/26/75
f 5/6/76 2/5/76 8/62/76
f 2/5/77 1/63/77 8/62/77
f 3/3/78 11/18/78 10/17/78
f 3/3/79 2/2/79 11/18/79
f 2/2/80 4/4/80 11/18/80
o Cylinder.000
v 0.000306 -0.339458 -0.462425
v 0.000306 -0.340643 -1.127571
v 0.065187 -0.334253 -1.127582
v 0.065187 -0.333068 -0.462437
v 0.127576 -0.315328 -1.127616
v 0.127576 -0.314143 -0.462471
v 0.185073 -0.284595 -1.127671
v 0.185073 -0.283410 -0.462525
v 0.235470 -0.243235 -1.127744
v 0.235470 -0.242050 -0.462599
v 0.276830 -0.192838 -1.127834
v 0.276830 -0.191653 -0.462689
v 0.307563 -0.135340 -1.127937
v 0.307563 -0.134156 -0.462791
v 0.326489 -0.072952 -1.128048
v 0.326489 -0.071767 -0.462902
v 0.332879 -0.008070 -1.128163
v 0.332879 -0.006886 -0.463018
v 0.326489 0.056811 -1.128279
v 0.326489 0.057996 -0.463133
v 0.307563 0.119200 -1.128390
v 0.307563 0.120384 -0.463245
v 0.276830 0.176697 -1.128492
v 0.276830 0.177882 -0.463347
v 0.235470 0.227094 -1.128582
v 0.235470 0.228279 -0.463437
v 0.185073 0.268454 -1.128656
v 0.185073 0.269639 -0.463510
v 0.127576 0.299187 -1.128711
v 0.127576 0.300372 -0.463565
v 0.065187 0.318112 -1.128744
v 0.065187 0.319297 -0.463599
v 0.000305 0.324502 -1.128756
v 0.000305 0.325687 -0.463610
v -0.064576 0.318112 -1.128744
v -0.064576 0.319297 -0.463599
v -0.126965 0.299187 -1.128711
v -0.126965 0.300372 -0.463565
v -0.184462 0.268454 -1.128656
v -0.184462 0.269638 -0.463510
v -0.234859 0.227094 -1.128582
v -0.234859 0.228279 -0.463437
v -0.276219 0.176697 -1.128492
v -0.276219 0.177882 -0.463347
v -0.306952 0.119199 -1.128390
v -0.306952 0.120384 -0.463245
v -0.325877 0.056811 -1.128279
v -0.325877 0.057996 -0.463133
v -0.332268 -0.008071 -1.128163
v -0.332268 -0.006886 -0.463018
v -0.325877 -0.072952 -1.128048
v -0.325877 -0.071768 -0.462902
v -0.306952 -0.135341 -1.127937
v -0.306952 -0.134156 -0.462791
v -0.276219 -0.192838 -1.127834
v -0.276219 -0.191653 -0.462689
v -0.234859 -0.243235 -1.127744
v -0.234859 -0.242050 -0.462599
v -0.184462 -0.284595 -1.127671
v -0.184462 -0.283410 -0.462525
v -0.126964 -0.315328 -1.127616
v -0.126964 -0.314143 -0.462471
v -0.064576 -0.334253 -1.127582
v -0.064576 -0.333068 -0.462437
vt 0.684073 0.510151
vt 0.684073 0.643182
vt 0.675759 0.643182
vt 0.675759 0.510151
vt 0.667445 0.643182
vt 0.667445 0.510151
vt 0.659130 0.643182
vt 0.659130 0.510151
vt 0.650816 0.643182
vt 0.650816 0.510151
vt 0.642501 0.643182
vt 0.642501 0.510151
vt 0.634187 0.643182
vt 0.634187 0.510151
vt 0.625873 0.643182
vt 0.625873 0.510151
vt 0.617558 0.643182
vt 0.617558 0.510151
vt 0.609243 0.643182
vt 0.609243 0.510151
vt 0.600929 0.643182
vt 0.600929 0.510151
vt 0.592615 0.643182
vt 0.592615 0.510151
vt 0.584300 0.643182
vt 0.584300 0.510151
vt 0.575986 0.643182
vt 0.575986 0.510151
vt 0.567671 0.643182
vt 0.567671 0.510151
vt 0.559356 0.643182
vt 0.559356 0.510151
vt 0.551042 0.643182
vt 0.551042 0.510151
vt 0.542728 0.643182
vt 0.542728 0.510151
vt 0.534413 0.643182
vt 0.534413 0.510151
vt 0.526099 0.643182
vt 0.526099 0.510151
vt 0.517784 0.643182
vt 0.517784 0.510151
vt 0.509470 0.643182
vt 0.509470 0.510151
vt 0.501156 0.643182
vt 0.501156 0.510151
vt 0.492841 0.643182
vt 0.492841 0.510151
vt 0.484526 0.643182
vt 0.484526 0.510151
vt 0.476212 0.643182
vt 0.476212 0.510151
vt 0.467898 0.643182
vt 0.467898 0.510151
vt 0.459583 0.643182
vt 0.459583 0.510151
vt 0.451269 0.643182
vt 0.451269 0.510151
vt 0.442954 0.643182
vt 0.442954 0.510151
vt 0.434639 0.643182
vt 0.434639 0.510151
vt 0.764011 0.639117
vt 0.751791 0.640321
vt 0.739572 0.639117
vt 0.727822 0.635553
vt 0.716993 0.629765
vt 0.707502 0.621975
vt 0.699712 0.612484
vt 0.693924 0.601655
vt 0.690360 0.589905
vt 0.689156 0.577686
vt 0.690359 0.565467
vt 0.693924 0.553716
vt 0.699712 0.542888
vt 0.707501 0.533396
vt 0.716993 0.525607
vt 0.727822 0.519819
vt 0.739571 0.516254
vt 0.751791 0.515051
vt 0.764011 0.516254
vt 0.775760 0.519819
vt 0.786589 0.525607
vt 0.796081 0.533396
vt 0.803870 0.542888
vt 0.809658 0.553716
vt 0.813222 0.565466
vt 0.814426 0.577686
vt 0.813222 0.589905
vt 0.809658 0.601655
vt 0.803870 0.612484
vt 0.796081 0.621975
vt 0.786589 0.629765
vt 0.775760 0.635553
vt 0.426325 0.643182
vt 0.426325 0.510151
vt 0.418011 0.643182
vt 0.418011 0.510151
vt 0.885284 0.640979
vt 0.897831 0.639744
vt 0.909895 0.636084
vt 0.921014 0.630141
vt 0.930760 0.622143
vt 0.938758 0.612397
vt 0.944701 0.601278
vt 0.948361 0.589213
vt 0.949596 0.576667
vt 0.948361 0.564120
vt 0.944701 0.552055
vt 0.938758 0.540937
vt 0.930760 0.531191
vt 0.921014 0.523193
vt 0.909895 0.517250
vt 0.897831 0.513590
vt 0.885284 0.512354
vt 0.872737 0.513590
vt 0.860673 0.517250
vt 0.849554 0.523193
vt 0.839808 0.531191
vt 0.831810 0.540937
vt 0.825867 0.552055
vt 0.822207 0.564120
vt 0.820972 0.576667
vt 0.822207 0.589213
vt 0.825867 0.601278
vt 0.831810 0.612397
vt 0.839808 0.622143
vt 0.849554 0.630141
vt 0.860673 0.636084
vt 0.872737 0.639744
vn 0.0980 -0.9952 0.0018
vn 0.2903 -0.9569 0.0017
vn 0.4714 -0.8819 0.0016
vn 0.6344 -0.7730 0.0014
vn 0.7730 -0.6344 0.0011
vn 0.8819 -0.4714 0.0008
vn 0.9569 -0.2903 0.0005
vn 0.9952 -0.0980 0.0002
vn 0.9952 0.0980 -0.0002
vn 0.9569 0.2903 -0.0005
vn 0.8819 0.4714 -0.0008
vn 0.7730 0.6344 -0.0011
vn 0.6344 0.7730 -0.0014
vn 0.4714 0.8819 -0.0016
vn 0.2903 0.9569 -0.0017
vn 0.0980 0.9952 -0.0018
vn -0.0980 0.9952 -0.0018
vn -0.2903 0.9569 -0.0017
vn -0.4714 0.8819 -0.0016
vn -0.6344 0.7730 -0.0014
vn -0.7730 0.6344 -0.0011
vn -0.8819 0.4714 -0.0008
vn -0.9569 0.2903 -0.0005
vn -0.9952 0.0980 -0.0002
vn -0.9952 -0.0980 0.0002
vn -0.9569 -0.2903 0.0005
vn -0.8819 -0.4714 0.0008
vn -0.7730 -0.6344 0.0011
vn -0.6344 -0.7730 0.0014
vn -0.4714 -0.8819 0.0016
vn -0.0000 -0.0018 -1.0000
vn -0.2903 -0.9569 0.0017
vn -0.0980 -0.9952 0.0018
vn -0.0000 0.0018 1.0000
usemtl None.001
s 1
f 43/64/81 44/65/81 45/66/81 46/67/81
f 46/67/82 45/66/82 47/68/82 48/69/82
f 48/69/83 47/68/83 49/70/83 50/71/83
f 50/71/84 49/70/84 51/72/84 52/73/84
f 52/73/85 51/72/85 53/74/85 54/75/85
f 54/75/86 53/74/86 55/76/86 56/77/86
f 56/77/87 55/76/87 57/78/87 58/79/87
f 58/79/88 57/78/88 59/80/88 60/81/88
f 60/81/89 59/80/89 61/82/89 62/83/89
f 62/83/90 61/82/90 63/84/90 64/85/90
f 64/85/91 63/84/91 65/86/91 66/87/91
f 66/87/92 65/86/92 67/88/92 68/89/92
f 68/89/93 67/88/93 69/90/93 70/91/93
f 70/91/94 69/90/94 71/92/94 72/93/94
f 72/93/95 71/92/95 73/94/95 74/95/95
f 74/95/96 73/94/96 75/96/96 76/97/96
f 76/97/97 75/96/97 77/98/97 78/99/97
f 78/99/98 77/98/98 79/100/98 80/101/98
f 80/101/99 79/100/99 81/102/99 82/103/99
f 82/103/100 81/102/100 83/104/100 84/105/100
f 84/105/101 83/104/101 85/106/101 86/107/101
f 86/107/102 85/106/102 87/108/102 88/109/102
f 88/109/103 87/108/103 89/110/103 90/111/103
f 90/111/104 89/110/104 91/112/104 92/113/104
f 92/113/105 91/112/105 93/114/105 94/115/105
f 94/115/106 93/114/106 95/116/106 96/117/106
f 96/117/107 95/116/107 97/118/107 98/119/107
f 98/119/108 97/118/108 99/120/108 100/121/108
f 100/121/109 99/120/109 101/122/109 102/123/109
f 102/123/110 101/122/110 103/124/110 104/125/110
f 45/126/111 44/127/111 105/128/111 103/129/111 101/130/111 99/131/111 97/132/111 95/133/111 93/134/111 91/135/111 89/136/111 87/137/111 85/138/111 83/139/111 81/140/111 79/141/111 77/142/111 75/143/111 73/144/111 71/145/111 69/146/111 67/147/111 65/148/111 63/149/111 61/150/111 59/151/111 57/152/111 55/153/111 53/154/111 51/155/111 49/156/111 47/157/111
f 104/125/112 103/124/112 105/158/112 106/159/112
f 106/159/113 105/158/113 44/160/113 43/161/113
f 43/162/114 46/163/114 48/164/114 50/165/114 52/166/114 54/167/114 56/168/114 58/169/114 60/170/114 62/171/114 64/172/114 66/173/114 68/174/114 70/175/114 72/176/114 74/177/114 76/178/114 78/179/114 80/180/114 82/181/114 84/182/114 86/183/114 88/184/114 90/185/114 92/186/114 94/187/114 96/188/114 98/189/114 100/190/114 102/191/114 104/192/114 106/193/114
o Cylinder.001
v 0.001510 -0.111863 -0.987385
v 0.001510 -0.115351 -1.209369
v 0.023166 -0.113218 -1.209403
v 0.023166 -0.109730 -0.987419
v 0.043990 -0.106902 -1.209502
v 0.043990 -0.103414 -0.987518
v 0.063181 -0.096645 -1.209663
v 0.063181 -0.093157 -0.987679
v 0.080003 -0.082842 -1.209880
v 0.080003 -0.079354 -0.987896
v 0.093808 -0.066023 -1.210144
v 0.093808 -0.062535 -0.988160
v 0.104066 -0.046834 -1.210446
v 0.104066 -0.043346 -0.988462
v 0.110383 -0.026012 -1.210773
v 0.110383 -0.022524 -0.988789
v 0.112516 -0.004359 -1.211113
v 0.112516 -0.000871 -0.989129
v 0.110383 0.017295 -1.211454
v 0.110383 0.020783 -0.989469
v 0.104066 0.038116 -1.211781
v 0.104066 0.041604 -0.989796
v 0.093808 0.057305 -1.212082
v 0.093808 0.060793 -0.990098
v 0.080003 0.074125 -1.212346
v 0.080003 0.077612 -0.990362
v 0.063181 0.087928 -1.212563
v 0.063181 0.091416 -0.990579
v 0.043990 0.098185 -1.212724
v 0.043990 0.101673 -0.990740
v 0.023166 0.104501 -1.212824
v 0.023166 0.107989 -0.990839
v 0.001510 0.106633 -1.212857
v 0.001510 0.110121 -0.990873
v -0.020146 0.104501 -1.212824
v -0.020146 0.107989 -0.990839
v -0.040970 0.098185 -1.212724
v -0.040970 0.101673 -0.990740
v -0.060162 0.087928 -1.212563
v -0.060162 0.091416 -0.990579
v -0.076983 0.074125 -1.212346
v -0.076983 0.077612 -0.990362
v -0.090788 0.057305 -1.212082
v -0.090788 0.060793 -0.990098
v -0.101046 0.038116 -1.211781
v -0.101046 0.041604 -0.989796
v -0.107363 0.017295 -1.211454
v -0.107363 0.020783 -0.989469
v -0.109496 -0.004359 -1.211113
v -0.109496 -0.000871 -0.989129
v -0.107363 -0.026012 -1.210773
v -0.107363 -0.022524 -0.988789
v -0.101046 -0.046834 -1.210446
v -0.101046 -0.043346 -0.988462
v -0.090788 -0.066023 -1.210144
v -0.090788 -0.062535 -0.988160
v -0.076983 -0.082842 -1.209880
v -0.076983 -0.079354 -0.987896
v -0.060162 -0.096645 -1.209663
v -0.060162 -0.093158 -0.987679
v -0.040970 -0.106902 -1.209502
v -0.040970 -0.103414 -0.987518
v -0.020146 -0.113218 -1.209403
v -0.020146 -0.109730 -0.987419
vt 0.683102 0.357262
vt 0.683102 0.488057
vt 0.674927 0.488057
vt 0.674927 0.357262
vt 0.666753 0.488057
vt 0.666753 0.357262
vt 0.658577 0.488057
vt 0.658577 0.357262
vt 0.650403 0.488057
vt 0.650403 0.357262
vt 0.642228 0.488057
vt 0.642228 0.357262
vt 0.634054 0.488057
vt 0.634054 0.357262
vt 0.625879 0.488057
vt 0.625879 0.357262
vt 0.617704 0.488057
vt 0.617704 0.357262
vt 0.609530 0.488057
vt 0.609530 0.357262
vt 0.601354 0.488057
vt 0.601354 0.357262
vt 0.593180 0.488057
vt 0.593180 0.357262
vt 0.585005 0.488057
vt 0.585005 0.357262
vt 0.576831 0.488057
vt 0.576831 0.357262
vt 0.568656 0.488057
vt 0.568656 0.357262
vt 0.560481 0.488057
vt 0.560481 0.357262
vt 0.552307 0.488057
vt 0.552307 0.357262
vt 0.544132 0.488057
vt 0.544132 0.357262
vt 0.535957 0.488057
vt 0.535957 0.357262
vt 0.527782 0.488057
vt 0.527782 0.357262
vt 0.519608 0.488057
vt 0.519608 0.357262
vt 0.511433 0.488057
vt 0.511433 0.357262
vt 0.503258 0.488057
vt 0.503258 0.357262
vt 0.495084 0.488057
vt 0.495084 0.357262
vt 0.486909 0.488057
vt 0.486909 0.357262
vt 0.478734 0.488057
vt 0.478734 0.357262
vt 0.470559 0.488057
vt 0.470559 0.357262
vt 0.462385 0.488057
vt 0.462385 0.357262
vt 0.454210 0.488057
vt 0.454210 0.357262
vt 0.446035 0.488057
vt 0.446035 0.357262
vt 0.437861 0.488057
vt 0.437861 0.357262
vt 0.899774 0.484818
vt 0.887014 0.486075
vt 0.874254 0.484818
vt 0.861983 0.481095
vt 0.850675 0.475052
vt 0.840764 0.466917
vt 0.832629 0.457006
vt 0.826585 0.445698
vt 0.822863 0.433428
vt 0.821606 0.420667
vt 0.822863 0.407907
vt 0.826585 0.395637
vt 0.832629 0.384329
vt 0.840764 0.374417
vt 0.850675 0.366283
vt 0.861983 0.360239
vt 0.874253 0.356517
vt 0.887014 0.355260
vt 0.899774 0.356517
vt 0.912044 0.360239
vt 0.923352 0.366283
vt 0.933264 0.374417
vt 0.941398 0.384329
vt 0.947442 0.395637
vt 0.951164 0.407907
vt 0.952421 0.420667
vt 0.951164 0.433428
vt 0.947442 0.445698
vt 0.941398 0.457006
vt 0.933264 0.466917
vt 0.923352 0.475052
vt 0.912044 0.481095
vt 0.429686 0.488057
vt 0.429686 0.357262
vt 0.421511 0.488057
vt 0.421511 0.357262
vt 0.751537 0.484878
vt 0.764064 0.483645
vt 0.776109 0.479990
vt 0.787211 0.474057
vt 0.796941 0.466071
vt 0.804927 0.456341
vt 0.810860 0.445240
vt 0.814514 0.433194
vt 0.815748 0.420667
vt 0.814514 0.408140
vt 0.810860 0.396095
vt 0.804927 0.384993
vt 0.796941 0.375263
vt 0.787211 0.367278
vt 0.776109 0.361344
vt 0.764064 0.357690
vt 0.751537 0.356456
vt 0.739010 0.357690
vt 0.726965 0.361344
vt 0.715863 0.367278
vt 0.706133 0.375263
vt 0.698147 0.384993
vt 0.692214 0.396095
vt 0.688559 0.408141
vt 0.687326 0.420667
vt 0.688560 0.433194
vt 0.692214 0.445240
vt 0.698147 0.456341
vt 0.706133 0.466071
vt 0.715863 0.474057
vt 0.726965 0.479990
vt 0.739010 0.483645
vn 0.0980 -0.9951 0.0156
vn 0.2903 -0.9568 0.0150
vn 0.4714 -0.8818 0.0139
vn 0.6344 -0.7729 0.0121
vn 0.7730 -0.6343 0.0100
vn 0.8819 -0.4713 0.0074
vn 0.9569 -0.2902 0.0046
vn 0.9952 -0.0980 0.0015
vn 0.9952 0.0980 -0.0015
vn 0.9569 0.2903 -0.0046
vn 0.8819 0.4713 -0.0074
vn 0.7730 0.6343 -0.0100
vn 0.6344 0.7729 -0.0121
vn 0.4714 0.8818 -0.0139
vn 0.2903 0.9568 -0.0150
vn 0.0980 0.9951 -0.0156
vn -0.0980 0.9951 -0.0156
vn -0.2903 0.9568 -0.0150
vn -0.4714 0.8818 -0.0139
vn -0.6344 0.7729 -0.0121
vn -0.7730 0.6343 -0.0100
vn -0.8819 0.4713 -0.0074
vn -0.9569 0.2903 -0.0046
vn -0.9952 0.0980 -0.0015
vn -0.9952 -0.0980 0.0015
vn -0.9569 -0.2902 0.0046
vn -0.8819 -0.4713 0.0074
vn -0.7730 -0.6343 0.0100
vn -0.6344 -0.7729 0.0121
vn -0.4714 -0.8818 0.0139
vn -0.0000 -0.0157 -0.9999
vn -0.2903 -0.9568 0.0150
vn -0.0980 -0.9951 0.0156
vn -0.0000 0.0157 0.9999
usemtl None.001
s 1
f 107/194/115 108/195/115 109/196/115 110/197/115
f 110/197/116 109/196/116 111/198/116 112/199/116
f 112/199/117 111/198/117 113/200/117 114/201/117
f 114/201/118 113/200/118 115/202/118 116/203/118
f 116/203/119 115/202/119 117/204/119 118/205/119
f 118/205/120 117/204/120 119/206/120 120/207/120
f 120/207/121 119/206/121 121/208/121 122/209/121
f 122/209/122 121/208/122 123/210/122 124/211/122
f 124/211/123 123/210/123 125/212/123 126/213/123
f 126/213/124 125/212/124 127/214/124 128/215/124
f 128/215/125 127/214/125 129/216/125 130/217/125
f 130/217/126 129/216/126 131/218/126 132/219/126
f 132/219/127 131/218/127 133/220/127 134/221/127
f 134/221/128 133/220/128 135/222/128 136/223/128
f 136/223/129 135/222/129 137/224/129 138/225/129
f 138/225/130 137/224/130 139/226/130 140/227/130
f 140/227/131 139/226/131 141/228/131 142/229/131
f 142/229/132 141/228/132 143/230/132 144/231/132
f 144/231/133 143/230/133 145/232/133 146/233/133
f 146/233/134 145/232/134 147/234/134 148/235/134
f 148/235/135 147/234/135 149/236/135 150/237/135
f 150/237/136 149/236/136 151/238/136 152/239/136
f 152/239/137 151/238/137 153/240/137 154/241/137
f 154/241/138 153/240/138 155/242/138 156/243/138
f 156/243/139 155/242/139 157/244/139 158/245/139
f 158/245/140 157/244/140 159/246/140 160/247/140
f 160/247/141 159/246/141 161/248/141 162/249/141
f 162/249/142 161/248/142 163/250/142 164/251/142
f 164/251/143 163/250/143 165/252/143 166/253/143
f 166/253/144 165/252/144 167/254/144 168/255/144
f 109/256/145 108/257/145 169/258/145 167/259/145 165/260/145 163/261/145 161/262/145 159/263/145 157/264/145 155/265/145 153/266/145 151/267/145 149/268/145 147/269/145 145/270/145 143/271/145 141/272/145 139/273/145 137/274/145 135/275/145 133/276/145 131/277/145 129/278/145 127/279/145 125/280/145 123/281/145 121/282/145 119/283/145 117/284/145 115/285/145 113/286/145 111/287/145
f 168/255/146 167/254/146 169/288/146 170/289/146
f 170/289/147 169/288/147 108/290/147 107/291/147
f 107/292/148 110/293/148 112/294/148 114/295/148 116/296/148 118/297/148 120/298/148 122/299/148 124/300/148 126/301/148 128/302/148 130/303/148 132/304/148 134/305/148 136/306/148 138/307/148 140/308/148 142/309/148 144/310/148 146/311/148 148/312/148 150/313/148 152/314/148 154/315/148 156/316/148 158/317/148 160/318/148 162/319/148 164/320/148 166/321/148 168/322/148 170/323/148
o Cube_Cube.000
v -0.053655 -0.053655 -1.048836
v -0.053655 0.053655 -1.048836
v -0.053655 0.053655 -1.586912
v -0.053655 -0.053655 -1.586912
v 0.053655 0.053655 -1.586912
v 0.053655 -0.053655 -1.586912
v 0.053655 0.053655 -1.048836
v 0.053655 -0.053655 -1.048836
vt 0.433062 0.775656
vt 0.433725 0.871518
vt 0.337861 0.872181
vt 0.337198 0.776318
vt 0.241997 0.872844
vt 0.241335 0.776981
vt 0.146135 0.873507
vt 0.145472 0.777644
vt 0.050271 0.874170
vt 0.049608 0.778307
vt 0.240672 0.681118
vt 0.144809 0.681780
vt 0.242660 0.968708
vt 0.146798 0.969370
vn -1.0000 0.0000 0.0000
vn 0.0000 0.0000 -1.0000
vn 1.0000 0.0000 0.0000
vn 0.0000 0.0000 1.0000
vn 0.0000 -1.0000 -0.0000
vn 0.0000 1.0000 0.0000
usemtl None.001
s off
f 171/324/149 172/325/149 173/326/149 174/327/149
f 174/327/150 173/326/150 175/328/150 176/329/150
f 176/329/151 175/328/151 177/330/151 178/331/151
f 178/331/152 177/330/152 172/332/152 171/333/152
f 174/334/153 176/329/153 178/331/153 171/335/153
f 175/328/154 173/336/154 172/337/154 177/330/154
