# Blender v2.80 (sub 74) OBJ File: ''
# www.blender.org
mtllib fire_deflag.mtl
o Icosphere_Icosphere.000
v -0.277009 -0.877767 -0.390909
v 0.209593 -0.775913 -0.629382
v -0.114438 -0.986219 0.119486
v 0.826738 -0.682157 -0.233826
v 0.292074 -0.231220 -1.154135
v -0.664585 -0.746667 -0.028559
v -0.621934 -0.507120 -0.596680
v -0.358141 -0.664920 -0.976815
v 0.828567 0.002318 -0.676529
v 0.082314 -0.800099 0.594193
v 0.479419 -0.849070 0.221894
v 0.507501 -0.479103 0.716173
v -0.853654 -0.392547 0.342318
v -0.453385 -0.701019 0.550467
v -0.619154 -0.148049 0.771187
v -0.640346 -0.208620 -0.518062
v -0.902998 -0.145880 -0.962836
v -0.895686 0.391193 -0.241641
v -0.000460 -0.019116 -1.936337
v -0.526030 0.235339 -1.177651
v 0.096259 0.493292 -1.083101
v 0.890157 -0.387602 0.239551
v -0.069004 -0.387602 0.919240
v -0.932803 0.148049 0.328574
v -0.608007 0.556583 -0.814845
v 0.340342 0.289452 -0.995689
v 0.781096 -0.014997 0.624231
v 0.960882 0.221920 0.165701
v 0.621934 0.507120 0.596680
v -0.199710 0.140675 0.969704
v 0.341729 0.073871 0.936891
v 0.045435 0.598621 0.799743
v -0.733322 0.644427 0.216684
v -0.548421 0.461469 0.697338
v -0.268212 0.894717 0.357131
v -0.082723 0.810761 -0.599697
v -0.479419 0.849070 -0.221894
v 0.114438 0.986218 -0.119486
v 0.853992 0.392706 -0.342443
v 0.453385 0.701019 -0.550467
v 0.664585 0.746667 0.028559
v 0.277006 0.877759 0.390905
vt 0.805222 0.015427
vt 0.762094 0.090127
vt 0.848348 0.090127
vt 0.718968 0.164825
vt 0.675841 0.090127
vt 0.632714 0.164825
vt 0.115190 0.015427
vt 0.072063 0.090127
vt 0.158317 0.090127
vt 0.287698 0.015427
vt 0.244572 0.090127
vt 0.330826 0.090127
vt 0.460206 0.015427
vt 0.417079 0.090127
vt 0.503333 0.090127
vt 0.675841 0.239524
vt 0.891475 0.164825
vt 0.805222 0.164825
vt 0.848348 0.239524
vt 0.201444 0.164825
vt 0.115190 0.164825
vt 0.158317 0.239524
vt 0.373952 0.164825
vt 0.287698 0.164825
vt 0.330826 0.239524
vt 0.546460 0.164825
vt 0.460206 0.164825
vt 0.503333 0.239524
vt 0.762094 0.239524
vt 0.934603 0.239524
vt 0.244572 0.239524
vt 0.417079 0.239524
vt 0.589587 0.239524
vt 0.805222 0.314222
vt 0.718968 0.314222
vt 0.762094 0.388921
vt 0.977730 0.314222
vt 0.891476 0.314222
vt 0.934603 0.388921
vt 0.287698 0.314222
vt 0.201444 0.314222
vt 0.244572 0.388921
vt 0.460206 0.314222
vt 0.373952 0.314222
vt 0.417079 0.388921
vt 0.632714 0.314222
vt 0.546460 0.314222
vt 0.589587 0.388921
vt 0.503333 0.388921
vt 0.546460 0.463621
vt 0.330826 0.388921
vt 0.373952 0.463621
vt 0.158317 0.388921
vt 0.201444 0.463621
vt 0.115190 0.314222
vt 0.848348 0.388921
vt 0.891475 0.463621
vt 0.675841 0.388921
vt 0.718968 0.463621
vt 0.072063 0.239524
vt 0.028936 0.164825
vt 0.589587 0.090127
vt 0.632714 0.015427
vn 0.0881 -0.9683 -0.2338
vn 0.4792 -0.6455 -0.5947
vn -0.3812 -0.9215 -0.0744
vn -0.5789 -0.7349 -0.3533
vn -0.6733 -0.7200 -0.1683
vn 0.7013 -0.3885 -0.5978
vn 0.4075 -0.7420 0.5323
vn -0.6575 -0.4410 0.6109
vn 0.7721 0.5059 -0.3846
vn -0.2755 0.8376 -0.4718
vn 0.9936 -0.0633 -0.0937
vn 0.1939 -0.5623 0.8039
vn -0.8442 -0.1103 0.5245
vn -0.8660 -0.1486 -0.4775
vn 0.6633 0.6060 -0.4391
vn 0.8359 0.2797 0.4723
vn 0.0947 0.3014 0.9488
vn -0.5241 0.7092 0.4716
vn -0.1710 0.9460 -0.2754
vn 0.6747 0.6747 -0.2993
vn 0.3812 0.9215 0.0744
vn 0.4397 0.8685 -0.2289
vn 0.2189 0.8841 -0.4129
vn 0.0179 0.9791 0.2024
vn -0.2259 0.9741 0.0056
vn -0.4972 0.8602 0.1135
vn -0.0090 0.8282 0.5604
vn -0.2752 0.6975 0.6616
vn -0.2520 0.4524 0.8555
vn 0.3377 0.6772 0.6537
vn 0.3601 0.4209 0.8326
vn 0.5947 0.2221 0.7726
vn 0.5789 0.7349 0.3533
vn 0.8019 0.5266 0.2822
vn 0.8728 0.4877 -0.0197
vn 0.6605 0.4614 -0.5923
vn 0.6614 0.4595 -0.5927
vn 0.6604 0.4616 -0.5923
vn 0.6253 0.4875 -0.6094
vn 0.2181 0.8508 -0.4780
vn -0.2737 0.8848 -0.3771
vn -0.7253 0.6667 -0.1716
vn -0.7330 0.6711 -0.1112
vn -0.7829 0.4184 0.4604
vn -0.7495 0.1647 0.6412
vn -0.5108 0.1616 0.8444
vn 0.0501 -0.0827 0.9953
vn 0.2784 -0.2829 0.9179
vn 0.5502 -0.1620 0.8192
vn 0.9404 -0.0687 0.3332
vn 0.9842 -0.1289 -0.1210
vn 0.9803 0.0875 -0.1768
vn -0.1493 0.8002 -0.5808
vn -0.1929 0.7126 -0.6745
vn -0.9808 -0.0331 -0.1923
vn -0.9139 0.3915 0.1074
vn -0.9972 0.0641 -0.0376
vn -0.9894 -0.1446 0.0101
vn -0.3241 -0.1691 0.9308
vn -0.4073 -0.4413 0.7996
vn -0.1803 -0.6487 0.7393
vn 0.7638 -0.3418 0.5476
vn 0.6698 -0.6122 0.4202
vn 0.7059 -0.6399 0.3036
vn 0.6595 0.4635 -0.5918
vn 0.6098 0.1785 -0.7722
vn 0.9381 0.0183 -0.3459
vn -0.8320 -0.2640 -0.4878
vn -0.8404 -0.2625 -0.4742
vn -0.9837 -0.0134 -0.1795
vn 0.8579 0.1797 -0.4813
vn -0.5184 -0.7733 -0.3650
vn -0.9009 -0.4313 -0.0475
vn -0.6752 -0.6741 0.2994
vn -0.4397 -0.8685 0.2289
vn -0.1980 -0.8819 0.4278
vn 0.4376 -0.8130 -0.3841
vn 0.2761 -0.6882 -0.6710
vn 0.0275 -0.9383 -0.3447
vn 0.1653 -0.9396 0.2999
vn 0.2483 -0.9552 -0.1608
vn 0.2482 -0.9553 -0.1608
vn 0.2483 -0.9553 -0.1608
usemtl None
s 1
f 1/1/1 2/2/1 3/3/1
f 4/4/2 2/5/2 5/6/2
f 1/7/3 3/8/3 6/9/3
f 1/10/4 6/11/4 7/12/4
f 1/13/5 7/14/5 8/15/5
f 4/4/6 5/6/6 9/16/6
f 10/17/7 11/18/7 12/19/7
f 13/20/8 14/21/8 15/22/8
f 16/23/9 17/24/9 18/25/9
f 19/26/10 20/27/10 21/28/10
f 4/4/11 9/16/11 22/29/11
f 10/17/12 12/19/12 23/30/12
f 13/20/13 15/22/13 24/31/13
f 16/23/14 18/25/14 25/32/14
f 19/26/15 21/28/15 26/33/15
f 27/34/16 28/35/16 29/36/16
f 30/37/17 31/38/17 32/39/17
f 33/40/18 34/41/18 35/42/18
f 36/43/19 37/44/19 38/45/19
f 39/46/20 40/47/20 41/48/20
f 41/48/21 38/49/21 42/50/21
f 41/48/22 40/47/22 38/49/22
f 40/47/23 36/43/23 38/49/23
f 38/45/24 35/51/24 42/52/24
f 38/45/25 37/44/25 35/51/25
f 37/44/26 33/40/26 35/51/26
f 35/42/27 32/53/27 42/54/27
f 35/42/28 34/41/28 32/53/28
f 34/41/29 30/55/29 32/53/29
f 32/39/30 29/56/30 42/57/30
f 32/39/31 31/38/31 29/56/31
f 31/38/32 27/34/32 29/56/32
f 29/36/33 41/58/33 42/59/33
f 29/36/34 28/35/34 41/58/34
f 28/35/35 39/46/35 41/58/35
f 26/33/36 40/47/37 39/46/38
f 26/33/39 21/28/39 40/47/39
f 21/28/40 36/43/40 40/47/40
f 25/32/41 37/44/41 36/43/41
f 25/32/42 18/25/42 37/44/42
f 18/25/43 33/40/43 37/44/43
f 24/31/44 34/41/44 33/40/44
f 24/31/45 15/22/45 34/41/45
f 15/22/46 30/55/46 34/41/46
f 23/30/47 31/38/47 30/37/47
f 23/30/48 12/19/48 31/38/48
f 12/19/49 27/34/49 31/38/49
f 22/29/50 28/35/50 27/34/50
f 22/29/51 9/16/51 28/35/51
f 9/16/52 39/46/52 28/35/52
f 21/28/53 25/32/53 36/43/53
f 21/28/54 20/27/54 25/32/54
f 20/27/55 16/23/55 25/32/55
f 18/25/56 24/31/56 33/40/56
f 18/25/57 17/24/57 24/31/57
f 17/24/58 13/20/58 24/31/58
f 15/22/59 23/60/59 30/55/59
f 15/22/60 14/21/60 23/60/60
f 14/21/61 10/61/61 23/60/61
f 12/19/62 22/29/62 27/34/62
f 12/19/63 11/18/63 22/29/63
f 11/18/64 4/4/64 22/29/64
f 9/16/65 26/33/36 39/46/38
f 9/16/66 5/6/66 26/33/66
f 5/6/67 19/26/67 26/33/67
f 8/15/68 20/27/68 19/26/68
f 8/15/69 7/14/69 20/27/69
f 7/14/70 16/23/70 20/27/70
f 7/12/71 17/24/71 16/23/71
f 7/12/72 6/11/72 17/24/72
f 6/11/73 13/20/73 17/24/73
f 6/9/74 14/21/74 13/20/74
f 6/9/75 3/8/75 14/21/75
f 3/8/76 10/61/76 14/21/76
f 5/6/77 8/62/77 19/26/77
f 5/6/78 2/5/78 8/62/78
f 2/5/79 1/63/79 8/62/79
f 3/3/80 11/18/80 10/17/80
f 3/3/81 2/2/82 11/18/83
f 2/2/82 4/4/82 11/18/83
o Icosphere_Icosphere.001
v -0.340625 -0.727981 -0.480683
v 0.257727 -0.602736 -0.773922
v -0.140719 -0.861339 0.146926
v 1.016602 -0.487448 -0.287525
v 0.359150 0.067048 -1.419186
v -0.817209 -0.566773 -0.035118
v -0.765877 -0.272409 -0.733137
v -0.440389 -0.466253 -1.201144
v 0.626399 0.426781 -2.277266
v 0.101218 -0.632476 0.730652
v 0.589519 -0.692694 0.272853
v 0.624051 -0.237762 0.880645
v -1.049699 -0.131328 0.420933
v -0.557507 -0.510642 0.676884
v -0.761345 0.169320 0.948293
v -0.787404 0.094838 -0.637037
v -1.076045 0.181522 -1.190275
v -1.101384 0.832401 -0.297135
v -0.000566 0.327863 -2.381024
v -0.646835 0.640754 -1.448103
v 0.118365 0.957947 -1.331839
v 1.094585 -0.125248 0.294565
v -0.084851 -0.125248 1.130347
v -1.147025 0.533418 0.404032
v -0.747638 1.035773 -1.001977
v 0.418503 0.707294 -1.224353
v 0.960478 0.332927 0.767588
v 1.181552 0.624253 0.203755
v 0.764764 0.974951 0.733710
v -0.245574 0.524350 1.192400
v 0.420208 0.442204 1.152052
v 0.055869 1.087465 0.983407
v -0.901732 1.143791 0.266446
v -0.674368 0.918816 0.857484
v -0.329808 1.451561 0.439148
v -0.101721 1.348324 -0.737420
v -0.589519 1.395431 -0.272853
v 0.140719 1.564075 -0.146926
v 1.050115 0.834261 -0.421086
v 0.557507 1.213379 -0.676884
v 0.817209 1.269511 0.035118
v 0.340622 1.430708 0.480678
vt 0.820222 0.517094
vt 0.777094 0.591794
vt 0.863348 0.591794
vt 0.733968 0.666492
vt 0.690841 0.591794
vt 0.647714 0.666492
vt 0.130190 0.517094
vt 0.087063 0.591794
vt 0.173317 0.591794
vt 0.302698 0.517094
vt 0.259572 0.591794
vt 0.345826 0.591794
vt 0.475206 0.517094
vt 0.432079 0.591794
vt 0.518333 0.591794
vt 0.690841 0.741191
vt 0.906475 0.666492
vt 0.820222 0.666492
vt 0.863348 0.741191
vt 0.216444 0.666492
vt 0.130190 0.666492
vt 0.173317 0.741191
vt 0.388952 0.666492
vt 0.302698 0.666492
vt 0.345826 0.741191
vt 0.561460 0.666492
vt 0.475206 0.666492
vt 0.518333 0.741191
vt 0.777094 0.741191
vt 0.949603 0.741191
vt 0.259572 0.741191
vt 0.432079 0.741191
vt 0.604587 0.741191
vt 0.820222 0.815889
vt 0.733968 0.815889
vt 0.777094 0.890588
vt 0.992730 0.815889
vt 0.906476 0.815889
vt 0.949603 0.890588
vt 0.302698 0.815889
vt 0.216444 0.815889
vt 0.259572 0.890588
vt 0.475206 0.815889
vt 0.388952 0.815889
vt 0.432079 0.890588
vt 0.647714 0.815889
vt 0.561460 0.815889
vt 0.604587 0.890588
vt 0.518333 0.890588
vt 0.561460 0.965288
vt 0.345826 0.890588
vt 0.388952 0.965288
vt 0.173317 0.890588
vt 0.216444 0.965288
vt 0.130190 0.815889
vt 0.863348 0.890588
vt 0.906475 0.965288
vt 0.690841 0.890588
vt 0.733968 0.965288
vt 0.087063 0.741191
vt 0.043936 0.666492
vt 0.604587 0.591794
vt 0.647714 0.517094
vn 0.0881 -0.9683 -0.2338
vn 0.4792 -0.6455 -0.5947
vn -0.3812 -0.9215 -0.0744
vn -0.5785 -0.7355 -0.3527
vn -0.6721 -0.7209 -0.1688
vn -0.0723 -0.9116 -0.4047
vn 0.4075 -0.7420 0.5323
vn -0.6575 -0.4410 0.6109
vn 0.7991 0.4965 -0.3391
vn -0.2755 0.8376 -0.4718
vn 0.9843 0.0565 -0.1671
vn 0.1939 -0.5623 0.8039
vn -0.8442 -0.1103 0.5245
vn -0.8660 -0.1486 -0.4775
vn 0.6633 0.6060 -0.4391
vn 0.8359 0.2797 0.4723
vn 0.0947 0.3014 0.9488
vn -0.5241 0.7092 0.4716
vn -0.1710 0.9460 -0.2754
vn 0.6747 0.6747 -0.2993
vn 0.3812 0.9215 0.0744
vn 0.4397 0.8685 -0.2289
vn 0.2189 0.8841 -0.4129
vn 0.0179 0.9791 0.2024
vn -0.2259 0.9741 0.0056
vn -0.4972 0.8602 0.1135
vn -0.0090 0.8282 0.5604
vn -0.2752 0.6975 0.6616
vn -0.2520 0.4524 0.8555
vn 0.3377 0.6772 0.6537
vn 0.3601 0.4209 0.8326
vn 0.5947 0.2221 0.7726
vn 0.5789 0.7349 0.3533
vn 0.8019 0.5266 0.2822
vn 0.8728 0.4877 -0.0197
vn 0.2544 0.9042 -0.3430
vn 0.6614 0.4595 -0.5927
vn 0.5093 0.6932 -0.5100
vn 0.6253 0.4875 -0.6094
vn 0.2181 0.8508 -0.4780
vn -0.2737 0.8848 -0.3771
vn -0.7253 0.6667 -0.1716
vn -0.7330 0.6711 -0.1112
vn -0.7829 0.4184 0.4604
vn -0.7495 0.1647 0.6412
vn -0.5108 0.1616 0.8444
vn 0.0501 -0.0827 0.9953
vn 0.2784 -0.2829 0.9179
vn 0.5502 -0.1620 0.8192
vn 0.9404 -0.0687 0.3332
vn 0.9689 -0.1374 -0.2059
vn 0.9759 -0.0315 -0.2159
vn -0.1493 0.8002 -0.5808
vn -0.1929 0.7126 -0.6745
vn -0.9808 -0.0331 -0.1923
vn -0.9139 0.3915 0.1074
vn -0.9982 0.0317 -0.0514
vn -0.9893 -0.1452 -0.0120
vn -0.3241 -0.1691 0.9308
vn -0.4073 -0.4413 0.7996
vn -0.1803 -0.6487 0.7393
vn 0.7638 -0.3418 0.5476
vn 0.6698 -0.6122 0.4202
vn 0.7059 -0.6399 0.3036
vn 0.1064 0.9658 -0.2363
vn -0.9596 0.1595 -0.2320
vn 0.9381 0.0183 -0.3459
vn -0.8320 -0.2640 -0.4878
vn -0.8397 -0.2626 -0.4752
vn -0.9840 -0.0111 -0.1780
vn 0.8847 0.1658 -0.4356
vn -0.5654 -0.7443 -0.3555
vn -0.9072 -0.4154 -0.0658
vn -0.6752 -0.6741 0.2994
vn -0.4397 -0.8685 0.2289
vn -0.1980 -0.8819 0.4278
vn 0.4376 -0.8130 -0.3841
vn 0.2761 -0.6882 -0.6710
vn 0.0275 -0.9383 -0.3447
vn 0.1653 -0.9396 0.2999
vn 0.2483 -0.9552 -0.1608
vn 0.2482 -0.9553 -0.1608
vn 0.2483 -0.9553 -0.1608
usemtl None
s 1
f 43/64/84 44/65/84 45/66/84
f 46/67/85 44/68/85 47/69/85
f 43/70/86 45/71/86 48/72/86
f 43/73/87 48/74/87 49/75/87
f 43/76/88 49/77/88 50/78/88
f 46/67/89 47/69/89 51/79/89
f 52/80/90 53/81/90 54/82/90
f 55/83/91 56/84/91 57/85/91
f 58/86/92 59/87/92 60/88/92
f 61/89/93 62/90/93 63/91/93
f 46/67/94 51/79/94 64/92/94
f 52/80/95 54/82/95 65/93/95
f 55/83/96 57/85/96 66/94/96
f 58/86/97 60/88/97 67/95/97
f 61/89/98 63/91/98 68/96/98
f 69/97/99 70/98/99 71/99/99
f 72/100/100 73/101/100 74/102/100
f 75/103/101 76/104/101 77/105/101
f 78/106/102 79/107/102 80/108/102
f 81/109/103 82/110/103 83/111/103
f 83/111/104 80/112/104 84/113/104
f 83/111/105 82/110/105 80/112/105
f 82/110/106 78/106/106 80/112/106
f 80/108/107 77/114/107 84/115/107
f 80/108/108 79/107/108 77/114/108
f 79/107/109 75/103/109 77/114/109
f 77/105/110 74/116/110 84/117/110
f 77/105/111 76/104/111 74/116/111
f 76/104/112 72/118/112 74/116/112
f 74/102/113 71/119/113 84/120/113
f 74/102/114 73/101/114 71/119/114
f 73/101/115 69/97/115 71/119/115
f 71/99/116 83/121/116 84/122/116
f 71/99/117 70/98/117 83/121/117
f 70/98/118 81/109/118 83/121/118
f 68/96/119 82/110/120 81/109/121
f 68/96/122 63/91/122 82/110/122
f 63/91/123 78/106/123 82/110/123
f 67/95/124 79/107/124 78/106/124
f 67/95/125 60/88/125 79/107/125
f 60/88/126 75/103/126 79/107/126
f 66/94/127 76/104/127 75/103/127
f 66/94/128 57/85/128 76/104/128
f 57/85/129 72/118/129 76/104/129
f 65/93/130 73/101/130 72/100/130
f 65/93/131 54/82/131 73/101/131
f 54/82/132 69/97/132 73/101/132
f 64/92/133 70/98/133 69/97/133
f 64/92/134 51/79/134 70/98/134
f 51/79/135 81/109/135 70/98/135
f 63/91/136 67/95/136 78/106/136
f 63/91/137 62/90/137 67/95/137
f 62/90/138 58/86/138 67/95/138
f 60/88/139 66/94/139 75/103/139
f 60/88/140 59/87/140 66/94/140
f 59/87/141 55/83/141 66/94/141
f 57/85/142 65/123/142 72/118/142
f 57/85/143 56/84/143 65/123/143
f 56/84/144 52/124/144 65/123/144
f 54/82/145 64/92/145 69/97/145
f 54/82/146 53/81/146 64/92/146
f 53/81/147 46/67/147 64/92/147
f 51/79/148 68/96/119 81/109/121
f 51/79/149 47/69/149 68/96/149
f 47/69/150 61/89/150 68/96/150
f 50/78/151 62/90/151 61/89/151
f 50/78/152 49/77/152 62/90/152
f 49/77/153 58/86/153 62/90/153
f 49/75/154 59/87/154 58/86/154
f 49/75/155 48/74/155 59/87/155
f 48/74/156 55/83/156 59/87/156
f 48/72/157 56/84/157 55/83/157
f 48/72/158 45/71/158 56/84/158
f 45/71/159 52/124/159 56/84/159
f 47/69/160 50/125/160 61/89/160
f 47/69/161 44/68/161 50/125/161
f 44/68/162 43/126/162 50/125/162
f 45/66/163 53/81/163 52/80/163
f 45/66/164 44/65/165 53/81/166
f 44/65/165 46/67/165 53/81/166
