# Blender v2.80 (sub 74) OBJ File: ''
# www.blender.org
mtllib crate.mtl
o Cube_Cube.007
v -1.000000 0.600000 -0.600000
v -1.000000 1.000000 -0.600000
v -1.000000 1.000000 -1.000000
v -1.000000 0.600000 -1.000000
v 0.600000 0.600000 -1.000000
v 0.600000 1.000000 -1.000000
v 1.000000 1.000000 -1.000000
v 1.000000 0.600000 -1.000000
v 1.000000 0.600000 0.600000
v 1.000000 1.000000 0.600000
v 1.000000 1.000000 1.000000
v 1.000000 0.600000 1.000000
v -0.600000 0.600000 1.000000
v -0.600000 1.000000 1.000000
v -1.000000 1.000000 1.000000
v -1.000000 0.600000 1.000000
v 0.600000 -1.000000 0.600000
v 1.000000 -1.000000 0.600000
v 1.000000 -1.000000 1.000000
v 0.600000 -1.000000 1.000000
v -0.600000 1.000000 0.600000
v -1.000000 1.000000 0.600000
v 0.600000 1.000000 0.600000
v 0.600000 1.000000 1.000000
v 0.200000 1.000000 0.600000
v 0.200000 1.000000 1.000000
v -0.200000 1.000000 0.600000
v -0.200000 1.000000 1.000000
v 0.600000 1.000000 -0.600000
v 1.000000 1.000000 -0.600000
v 0.600000 1.000000 -0.200000
v 1.000000 1.000000 -0.200000
v 0.600000 1.000000 0.200000
v 1.000000 1.000000 0.200000
v 0.200000 1.000000 -1.000000
v 0.200000 1.000000 -0.600000
v 0.212956 0.768263 -0.212956
v 0.212956 0.768263 0.212956
v -0.200000 1.000000 -1.000000
v -0.200000 1.000000 -0.600000
v -0.212956 0.768263 -0.212956
v -0.212956 0.768263 0.212956
v -0.600000 1.000000 -1.000000
v -0.600000 1.000000 -0.600000
v -0.600000 1.000000 -0.200000
v -0.600000 1.000000 0.200000
v -1.000000 1.000000 -0.200000
v -1.000000 1.000000 0.200000
v -1.000000 -1.000000 0.600000
v -0.600000 -1.000000 0.600000
v -0.600000 -1.000000 1.000000
v -1.000000 -1.000000 1.000000
v -0.200000 -1.000000 0.600000
v -0.200000 -1.000000 1.000000
v 0.200000 -1.000000 0.600000
v 0.200000 -1.000000 1.000000
v -1.000000 -1.000000 -1.000000
v -0.600000 -1.000000 -1.000000
v -0.600000 -1.000000 -0.600000
v -1.000000 -1.000000 -0.600000
v -0.600000 -1.000000 -0.200000
v -1.000000 -1.000000 -0.200000
v -0.600000 -1.000000 0.200000
v -1.000000 -1.000000 0.200000
v -0.200000 -1.000000 -1.000000
v -0.200000 -1.000000 -0.600000
v -0.213738 -0.762564 -0.213738
v -0.213738 -0.762564 0.213738
v 0.200000 -1.000000 -1.000000
v 0.200000 -1.000000 -0.600000
v 0.213738 -0.762564 -0.213738
v 0.213738 -0.762564 0.213738
v 0.600000 -1.000000 -1.000000
v 0.600000 -1.000000 -0.600000
v 0.600000 -1.000000 -0.200000
v 0.600000 -1.000000 0.200000
v 1.000000 -1.000000 -1.000000
v 1.000000 -1.000000 -0.600000
v 1.000000 -1.000000 -0.200000
v 1.000000 -1.000000 0.200000
v -0.600000 -0.600000 1.000000
v -1.000000 -0.600000 1.000000
v -0.600000 -0.200000 1.000000
v -1.000000 -0.200000 1.000000
v -0.600000 0.200000 1.000000
v -1.000000 0.200000 1.000000
v 1.000000 -0.600000 1.000000
v 0.600000 -0.600000 1.000000
v 0.200000 -0.600000 1.000000
v -0.200000 -0.600000 1.000000
v 1.000000 -0.200000 1.000000
v 0.600000 -0.200000 1.000000
v 0.211767 -0.212794 0.773350
v -0.211767 -0.212794 0.773350
v 1.000000 0.200000 1.000000
v 0.600000 0.200000 1.000000
v 0.213692 0.212890 0.762266
v -0.213692 0.212890 0.762266
v 0.600000 0.600000 1.000000
v 0.200000 0.600000 1.000000
v -0.200000 0.600000 1.000000
v 1.000000 -0.600000 0.600000
v 1.000000 -0.200000 0.600000
v 0.999463 0.200000 0.600000
v 1.000000 -0.600000 -1.000000
v 1.000000 -0.600000 -0.600000
v 1.000000 -0.600000 -0.200000
v 1.000000 -0.600000 0.200000
v 1.000000 -0.200000 -1.000000
v 1.000000 -0.200000 -0.600000
v 0.770871 -0.213740 -0.213366
v 0.770871 -0.213740 0.213366
v 1.000000 0.200000 -1.000000
v 0.999463 0.200000 -0.600000
v 0.776639 0.211210 -0.211543
v 0.776639 0.211210 0.211543
v 1.000000 0.600000 -0.600000
v 1.000000 0.600000 -0.200000
v 1.000000 0.600000 0.200000
v 0.600000 -0.600000 -1.000000
v 0.600000 -0.200000 -1.000000
v 0.600000 0.200000 -1.000000
v -1.000000 -0.600000 -1.000000
v -0.600000 -0.600000 -1.000000
v -0.200000 -0.600000 -1.000000
v 0.200000 -0.600000 -1.000000
v -1.000000 -0.200000 -1.000000
v -0.600000 -0.200000 -1.000000
v -0.211767 -0.212794 -0.773350
v 0.211767 -0.212794 -0.773350
v -1.000000 0.200000 -1.000000
v -0.600000 0.200000 -1.000000
v -0.213692 0.212890 -0.762266
v 0.213692 0.212890 -0.762266
v -0.600000 0.600000 -1.000000
v -0.200000 0.600000 -1.000000
v 0.200000 0.600000 -1.000000
v -1.000000 -0.600000 -0.600000
v -1.000000 -0.200000 -0.600000
v -0.999463 0.200000 -0.600000
v -1.000000 -0.600000 0.600000
v -1.000000 -0.600000 0.200000
v -1.000000 -0.600000 -0.200000
v -1.000000 -0.200000 0.600000
v -0.770871 -0.213740 0.213366
v -0.770871 -0.213740 -0.213366
v -0.999463 0.200000 0.600000
v -0.776639 0.211210 0.211543
v -0.776639 0.211210 -0.211543
v -1.000000 0.600000 0.600000
v -1.000000 0.600000 0.200000
v -1.000000 0.600000 -0.200000
vt 0.575000 0.200000
vt 0.625000 0.200000
vt 0.625000 0.250000
vt 0.575000 0.250000
vt 0.575000 0.450000
vt 0.625000 0.450000
vt 0.625000 0.500000
vt 0.575000 0.500000
vt 0.575000 0.700000
vt 0.625000 0.700000
vt 0.625000 0.750000
vt 0.575000 0.750000
vt 0.575000 0.950000
vt 0.625000 0.950000
vt 0.625000 1.000000
vt 0.575000 1.000000
vt 0.325000 0.700000
vt 0.375000 0.700000
vt 0.375000 0.750000
vt 0.325000 0.750000
vt 0.825000 0.700000
vt 0.875000 0.700000
vt 0.875000 0.750000
vt 0.825000 0.750000
vt 0.675000 0.700000
vt 0.675000 0.750000
vt 0.725000 0.700000
vt 0.725000 0.750000
vt 0.775000 0.700000
vt 0.775000 0.750000
vt 0.675000 0.500000
vt 0.675000 0.550000
vt 0.625000 0.550000
vt 0.675000 0.600000
vt 0.625000 0.600000
vt 0.675000 0.650000
vt 0.625000 0.650000
vt 0.725000 0.500000
vt 0.725000 0.550000
vt 0.725000 0.600000
vt 0.725000 0.650000
vt 0.775000 0.500000
vt 0.775000 0.550000
vt 0.775000 0.600000
vt 0.775000 0.650000
vt 0.825000 0.500000
vt 0.825000 0.550000
vt 0.825000 0.600000
vt 0.825000 0.650000
vt 0.875000 0.500000
vt 0.875000 0.550000
vt 0.875000 0.600000
vt 0.875000 0.650000
vt 0.125000 0.700000
vt 0.175000 0.700000
vt 0.175000 0.750000
vt 0.125000 0.750000
vt 0.225000 0.700000
vt 0.225000 0.750000
vt 0.275000 0.700000
vt 0.275000 0.750000
vt 0.125000 0.500000
vt 0.175000 0.500000
vt 0.175000 0.550000
vt 0.125000 0.550000
vt 0.175000 0.600000
vt 0.125000 0.600000
vt 0.175000 0.650000
vt 0.125000 0.650000
vt 0.225000 0.500000
vt 0.225000 0.550000
vt 0.225000 0.600000
vt 0.225000 0.650000
vt 0.275000 0.500000
vt 0.275000 0.550000
vt 0.275000 0.600000
vt 0.275000 0.650000
vt 0.325000 0.500000
vt 0.325000 0.550000
vt 0.325000 0.600000
vt 0.325000 0.650000
vt 0.375000 0.500000
vt 0.375000 0.550000
vt 0.375000 0.600000
vt 0.375000 0.650000
vt 0.375000 0.950000
vt 0.425000 0.950000
vt 0.425000 1.000000
vt 0.375000 1.000000
vt 0.475000 0.950000
vt 0.475000 1.000000
vt 0.525000 0.950000
vt 0.525000 1.000000
vt 0.425000 0.750000
vt 0.425000 0.800000
vt 0.375000 0.800000
vt 0.425000 0.850000
vt 0.375000 0.850000
vt 0.425000 0.900000
vt 0.375000 0.900000
vt 0.475000 0.750000
vt 0.475000 0.800000
vt 0.475000 0.850000
vt 0.475000 0.900000
vt 0.525000 0.750000
vt 0.525000 0.800000
vt 0.525000 0.850000
vt 0.525000 0.900000
vt 0.575000 0.800000
vt 0.575000 0.850000
vt 0.575000 0.900000
vt 0.625000 0.800000
vt 0.625000 0.850000
vt 0.625000 0.900000
vt 0.425000 0.700000
vt 0.475000 0.700000
vt 0.525000 0.700000
vt 0.425000 0.500000
vt 0.425000 0.550000
vt 0.425000 0.600000
vt 0.425000 0.650000
vt 0.475000 0.500000
vt 0.475000 0.550000
vt 0.475000 0.600000
vt 0.475000 0.650000
vt 0.525000 0.500000
vt 0.525000 0.550000
vt 0.525000 0.600000
vt 0.525000 0.650000
vt 0.575000 0.550000
vt 0.575000 0.600000
vt 0.575000 0.650000
vt 0.375000 0.450000
vt 0.425000 0.450000
vt 0.475000 0.450000
vt 0.525000 0.450000
vt 0.375000 0.250000
vt 0.425000 0.250000
vt 0.425000 0.300000
vt 0.375000 0.300000
vt 0.425000 0.350000
vt 0.375000 0.350000
vt 0.425000 0.400000
vt 0.375000 0.400000
vt 0.475000 0.250000
vt 0.475000 0.300000
vt 0.475000 0.350000
vt 0.475000 0.400000
vt 0.525000 0.250000
vt 0.525000 0.300000
vt 0.525000 0.350000
vt 0.525000 0.400000
vt 0.575000 0.300000
vt 0.575000 0.350000
vt 0.575000 0.400000
vt 0.625000 0.300000
vt 0.625000 0.350000
vt 0.625000 0.400000
vt 0.375000 0.200000
vt 0.425000 0.200000
vt 0.475000 0.200000
vt 0.525000 0.200000
vt 0.375000 0.000000
vt 0.425000 0.000000
vt 0.425000 0.050000
vt 0.375000 0.050000
vt 0.425000 0.100000
vt 0.375000 0.100000
vt 0.425000 0.150000
vt 0.375000 0.150000
vt 0.475000 0.000000
vt 0.475000 0.050000
vt 0.475000 0.100000
vt 0.475000 0.150000
vt 0.525000 0.000000
vt 0.525000 0.050000
vt 0.525000 0.100000
vt 0.525000 0.150000
vt 0.575000 0.000000
vt 0.575000 0.050000
vt 0.575000 0.100000
vt 0.575000 0.150000
vt 0.625000 0.000000
vt 0.625000 0.050000
vt 0.625000 0.100000
vt 0.625000 0.150000
vn -1.0000 -0.0002 0.0002
vn -1.0000 -0.0000 0.0000
vn -1.0000 -0.0003 0.0003
vn 0.0000 0.0000 -1.0000
vn 1.0000 -0.0002 -0.0002
vn 1.0000 0.0000 0.0000
vn 1.0000 -0.0003 -0.0003
vn 0.0000 0.0000 1.0000
vn 0.0000 -1.0000 0.0000
vn 0.0000 1.0000 0.0000
vn -0.2757 0.9209 0.2757
vn -0.5137 0.8580 0.0000
vn -0.2757 0.9209 -0.2757
vn 0.0000 0.8580 0.5137
vn 0.0000 0.8580 -0.5137
vn 0.2757 0.9209 0.2757
vn 0.5137 0.8580 0.0000
vn 0.2757 0.9209 -0.2757
vn 0.2819 -0.9171 0.2819
vn 0.5237 -0.8519 0.0000
vn 0.2819 -0.9171 -0.2819
vn 0.0000 -0.8519 0.5237
vn 0.0000 -0.8519 -0.5237
vn -0.2819 -0.9171 0.2819
vn -0.5237 -0.8519 0.0000
vn -0.2819 -0.9171 -0.2819
vn -0.2701 0.2701 0.9242
vn 0.0000 0.5052 0.8630
vn 0.2701 0.2701 0.9242
vn -0.5142 0.0127 0.8576
vn 0.0000 0.0260 0.9997
vn 0.5142 0.0127 0.8576
vn -0.2819 -0.2819 0.9171
vn 0.0000 -0.5233 0.8521
vn 0.2819 -0.2819 0.9171
vn 1.0000 0.0003 -0.0003
vn 1.0000 0.0000 -0.0007
vn 1.0000 0.0003 0.0003
vn 0.9222 0.2734 0.2734
vn 0.8601 0.5102 0.0000
vn 0.9222 0.2734 -0.2734
vn 1.0000 -0.0000 0.0007
vn 0.8639 -0.0066 0.5037
vn 0.9999 -0.0136 -0.0000
vn 0.8639 -0.0066 -0.5037
vn 1.0000 -0.0003 0.0003
vn 1.0000 -0.0002 0.0002
vn 0.9264 -0.2668 0.2656
vn 0.8671 -0.4981 0.0000
vn 0.9264 -0.2668 -0.2656
vn 0.2701 0.2701 -0.9242
vn 0.0000 0.5052 -0.8630
vn -0.2701 0.2701 -0.9242
vn 0.5142 0.0127 -0.8576
vn 0.0000 0.0260 -0.9997
vn -0.5142 0.0127 -0.8576
vn 0.2819 -0.2819 -0.9171
vn 0.0000 -0.5233 -0.8521
vn -0.2819 -0.2819 -0.9171
vn -1.0000 0.0003 0.0003
vn -1.0000 0.0000 0.0007
vn -1.0000 0.0003 -0.0003
vn -0.9222 0.2734 -0.2734
vn -0.8601 0.5102 0.0000
vn -0.9222 0.2734 0.2734
vn -1.0000 0.0000 -0.0007
vn -0.8639 -0.0066 -0.5037
vn -0.9999 -0.0136 -0.0000
vn -0.8639 -0.0066 0.5037
vn -1.0000 -0.0003 -0.0003
vn -1.0000 -0.0002 -0.0002
vn -0.9264 -0.2668 -0.2656
vn -0.8671 -0.4981 0.0000
vn -0.9264 -0.2668 0.2656
usemtl None.007
s 1
f 1/1/1 2/2/2 3/3/2 4/4/3
f 5/5/4 6/6/4 7/7/4 8/8/4
f 9/9/5 10/10/6 11/11/6 12/12/7
f 13/13/8 14/14/8 15/15/8 16/16/8
f 17/17/9 18/18/9 19/19/9 20/20/9
f 21/21/10 22/22/10 15/23/10 14/24/10
f 10/10/10 23/25/10 24/26/10 11/11/10
f 23/25/10 25/27/10 26/28/10 24/26/10
f 25/27/10 27/29/10 28/30/10 26/28/10
f 27/29/10 21/21/10 14/24/10 28/30/10
f 7/7/10 6/31/10 29/32/10 30/33/10
f 30/33/10 29/32/10 31/34/10 32/35/10
f 32/35/10 31/34/10 33/36/10 34/37/10
f 34/37/10 33/36/10 23/25/10 10/10/10
f 6/31/10 35/38/10 36/39/10 29/32/10
f 29/32/11 36/39/11 37/40/11 31/34/11
f 31/34/12 37/40/12 38/41/12 33/36/12
f 33/36/13 38/41/13 25/27/13 23/25/13
f 35/38/10 39/42/10 40/43/10 36/39/10
f 36/39/14 40/43/14 41/44/14 37/40/14
f 37/40/10 41/44/10 42/45/10 38/41/10
f 38/41/15 42/45/15 27/29/15 25/27/15
f 39/42/10 43/46/10 44/47/10 40/43/10
f 40/43/16 44/47/16 45/48/16 41/44/16
f 41/44/17 45/48/17 46/49/17 42/45/17
f 42/45/18 46/49/18 21/21/18 27/29/18
f 43/46/10 3/50/10 2/51/10 44/47/10
f 44/47/10 2/51/10 47/52/10 45/48/10
f 45/48/10 47/52/10 48/53/10 46/49/10
f 46/49/10 48/53/10 22/22/10 21/21/10
f 49/54/9 50/55/9 51/56/9 52/57/9
f 50/55/9 53/58/9 54/59/9 51/56/9
f 53/58/9 55/60/9 56/61/9 54/59/9
f 55/60/9 17/17/9 20/20/9 56/61/9
f 57/62/9 58/63/9 59/64/9 60/65/9
f 60/65/9 59/64/9 61/66/9 62/67/9
f 62/67/9 61/66/9 63/68/9 64/69/9
f 64/69/9 63/68/9 50/55/9 49/54/9
f 58/63/9 65/70/9 66/71/9 59/64/9
f 59/64/19 66/71/19 67/72/19 61/66/19
f 61/66/20 67/72/20 68/73/20 63/68/20
f 63/68/21 68/73/21 53/58/21 50/55/21
f 65/70/9 69/74/9 70/75/9 66/71/9
f 66/71/22 70/75/22 71/76/22 67/72/22
f 67/72/9 71/76/9 72/77/9 68/73/9
f 68/73/23 72/77/23 55/60/23 53/58/23
f 69/74/9 73/78/9 74/79/9 70/75/9
f 70/75/24 74/79/24 75/80/24 71/76/24
f 71/76/25 75/80/25 76/81/25 72/77/25
f 72/77/26 76/81/26 17/17/26 55/60/26
f 73/78/9 77/82/9 78/83/9 74/79/9
f 74/79/9 78/83/9 79/84/9 75/80/9
f 75/80/9 79/84/9 80/85/9 76/81/9
f 76/81/9 80/85/9 18/18/9 17/17/9
f 51/86/8 81/87/8 82/88/8 52/89/8
f 81/87/8 83/90/8 84/91/8 82/88/8
f 83/90/8 85/92/8 86/93/8 84/91/8
f 85/92/8 13/13/8 16/16/8 86/93/8
f 19/19/8 87/94/8 88/95/8 20/96/8
f 20/96/8 88/95/8 89/97/8 56/98/8
f 56/98/8 89/97/8 90/99/8 54/100/8
f 54/100/8 90/99/8 81/87/8 51/86/8
f 87/94/8 91/101/8 92/102/8 88/95/8
f 88/95/27 92/102/27 93/103/27 89/97/27
f 89/97/28 93/103/28 94/104/28 90/99/28
f 90/99/29 94/104/29 83/90/29 81/87/29
f 91/101/8 95/105/8 96/106/8 92/102/8
f 92/102/30 96/106/30 97/107/30 93/103/30
f 93/103/31 97/107/31 98/108/31 94/104/31
f 94/104/32 98/108/32 85/92/32 83/90/32
f 95/105/8 12/12/8 99/109/8 96/106/8
f 96/106/33 99/109/33 100/110/33 97/107/33
f 97/107/34 100/110/34 101/111/34 98/108/34
f 98/108/35 101/111/35 13/13/35 85/92/35
f 12/12/8 11/11/8 24/112/8 99/109/8
f 99/109/8 24/112/8 26/113/8 100/110/8
f 100/110/8 26/113/8 28/114/8 101/111/8
f 101/111/8 28/114/8 14/14/8 13/13/8
f 18/18/6 102/115/6 87/94/6 19/19/6
f 102/115/6 103/116/36 91/101/36 87/94/6
f 103/116/36 104/117/37 95/105/37 91/101/36
f 104/117/37 9/9/5 12/12/7 95/105/37
f 77/82/6 105/118/6 106/119/6 78/83/6
f 78/83/6 106/119/6 107/120/6 79/84/6
f 79/84/6 107/120/6 108/121/6 80/85/6
f 80/85/6 108/121/6 102/115/6 18/18/6
f 105/118/6 109/122/38 110/123/38 106/119/6
f 106/119/39 110/123/39 111/124/39 107/120/39
f 107/120/40 111/124/40 112/125/40 108/121/40
f 108/121/41 112/125/41 103/116/41 102/115/41
f 109/122/38 113/126/42 114/127/42 110/123/38
f 110/123/43 114/127/43 115/128/43 111/124/43
f 111/124/44 115/128/44 116/129/44 112/125/44
f 112/125/45 116/129/45 104/117/45 103/116/45
f 113/126/42 8/8/46 117/130/47 114/127/42
f 114/127/48 117/130/48 118/131/48 115/128/48
f 115/128/49 118/131/49 119/132/49 116/129/49
f 116/129/50 119/132/50 9/9/50 104/117/50
f 8/8/46 7/7/6 30/33/6 117/130/47
f 117/130/47 30/33/6 32/35/6 118/131/6
f 118/131/6 32/35/6 34/37/6 119/132/6
f 119/132/6 34/37/6 10/10/6 9/9/5
f 73/133/4 120/134/4 105/118/4 77/82/4
f 120/134/4 121/135/4 109/122/4 105/118/4
f 121/135/4 122/136/4 113/126/4 109/122/4
f 122/136/4 5/5/4 8/8/4 113/126/4
f 57/137/4 123/138/4 124/139/4 58/140/4
f 58/140/4 124/139/4 125/141/4 65/142/4
f 65/142/4 125/141/4 126/143/4 69/144/4
f 69/144/4 126/143/4 120/134/4 73/133/4
f 123/138/4 127/145/4 128/146/4 124/139/4
f 124/139/51 128/146/51 129/147/51 125/141/51
f 125/141/52 129/147/52 130/148/52 126/143/52
f 126/143/53 130/148/53 121/135/53 120/134/53
f 127/145/4 131/149/4 132/150/4 128/146/4
f 128/146/54 132/150/54 133/151/54 129/147/54
f 129/147/55 133/151/55 134/152/55 130/148/55
f 130/148/56 134/152/56 122/136/56 121/135/56
f 131/149/4 4/4/4 135/153/4 132/150/4
f 132/150/57 135/153/57 136/154/57 133/151/57
f 133/151/58 136/154/58 137/155/58 134/152/58
f 134/152/59 137/155/59 5/5/59 122/136/59
f 4/4/4 3/3/4 43/156/4 135/153/4
f 135/153/4 43/156/4 39/157/4 136/154/4
f 136/154/4 39/157/4 35/158/4 137/155/4
f 137/155/4 35/158/4 6/6/4 5/5/4
f 60/159/2 138/160/2 123/138/2 57/137/2
f 138/160/2 139/161/60 127/145/60 123/138/2
f 139/161/60 140/162/61 131/149/61 127/145/60
f 140/162/61 1/1/1 4/4/3 131/149/61
f 52/163/2 82/164/2 141/165/2 49/166/2
f 49/166/2 141/165/2 142/167/2 64/168/2
f 64/168/2 142/167/2 143/169/2 62/170/2
f 62/170/2 143/169/2 138/160/2 60/159/2
f 82/164/2 84/171/62 144/172/62 141/165/2
f 141/165/63 144/172/63 145/173/63 142/167/63
f 142/167/64 145/173/64 146/174/64 143/169/64
f 143/169/65 146/174/65 139/161/65 138/160/65
f 84/171/62 86/175/66 147/176/66 144/172/62
f 144/172/67 147/176/67 148/177/67 145/173/67
f 145/173/68 148/177/68 149/178/68 146/174/68
f 146/174/69 149/178/69 140/162/69 139/161/69
f 86/175/66 16/179/70 150/180/71 147/176/66
f 147/176/72 150/180/72 151/181/72 148/177/72
f 148/177/73 151/181/73 152/182/73 149/178/73
f 149/178/74 152/182/74 1/1/74 140/162/74
f 16/179/70 15/183/2 22/184/2 150/180/71
f 150/180/71 22/184/2 48/185/2 151/181/2
f 151/181/2 48/185/2 47/186/2 152/182/2
f 152/182/2 47/186/2 2/2/2 1/1/1
